<?xml version="1.0" encoding="utf-8"?>
<!-- Generator: Adobe Illustrator 17.1.0, SVG Export Plug-In . SVG Version: 6.00 Build 0)  -->
<!DOCTYPE svg PUBLIC "-//W3C//DTD SVG 1.1//EN" "http://www.w3.org/Graphics/SVG/1.1/DTD/svg11.dtd">
<svg version="1.1" id="Layer_1" xmlns="http://www.w3.org/2000/svg" xmlns:xlink="http://www.w3.org/1999/xlink" x="0px" y="0px"
	 viewBox="0 0 720 1280" style="enable-background:new 0 0 720 1280;" xml:space="preserve">
<polygon style="fill:#FFFFFF;" points="720,489.375 0,790.5 0,0 720,0 "/>
<rect x="-876" y="2471.5" transform="matrix(0.5 0.86603 -0.86603 0.5 2177.81494 1171.91418)" style="fill:none;stroke:#CCCCCC;stroke-miterlimit:10;" width="1900" height="1"/>
<rect x="-590" y="639.5" transform="matrix(0.5 0.86603 -0.86603 0.5 734.25629 8.23087)" style="fill:none;stroke:#CCCCCC;stroke-miterlimit:10;" width="1900" height="1"/>
<rect x="-2068" y="2471.5" transform="matrix(0.5 0.86603 -0.86603 0.5 1581.81482 2204.21655)" style="fill:none;stroke:#CCCCCC;stroke-miterlimit:10;" width="1900" height="1"/>
<rect x="5514.59326" y="2471.5" transform="matrix(0.86603 -0.5 0.5 0.86603 -390.00491 3488.48193)" style="fill:#CCCCCC;" width="1600" height="1"/>
<polygon style="fill:#F7941E;" points="1916,2124.6792 1016.02081,2499 1016.02081,1653 1916,1656 "/>
<polygon style="fill:#F7941E;" points="4711.44092,2140.6792 3811.44092,2592 3811.44092,1672 4711.44092,1672 "/>
<polygon style="fill:#CCCCCC;" points="3650.802,382.88107 3290.802,563.40936 3290.802,195.40938 3650.802,195.40938 "/>
<polygon style="fill:#CCCCCC;" points="5954.75537,2212 5054.75537,2732 5054.75537,1672 5954.75537,1672 "/>
<rect x="4727.58838" y="1672" style="fill:#A97C50;" width="26.55081" height="140"/>
<rect x="978.5307" y="2472" style="fill:#F7941E;" width="27.33439" height="60"/>
<rect x="-3223.49023" y="1386.34534" style="fill:#FFFFFF;stroke:#221F20;stroke-width:10;stroke-linecap:square;stroke-miterlimit:10;" width="2977.81055" height="1254.27026"/>
<g>
	<path style="fill:#221F20;" d="M-1746,2235.2168c-34.59424,0-64.7832-12.52051-89.729-37.2124
		c-24.47754-24.74414-36.86816-55.07861-36.86816-90.20264v-311.04053h20.42969v311.04053
		c0,30.21289,10.19434,55.20459,31.16602,76.40479c20.20947,20.9043,45.42871,31.48096,75.00146,31.48096
		c29.57324,0,54.79248-10.57666,74.95801-31.43555c21.01563-21.24512,31.20996-46.2373,31.20996-76.4502v-311.04053h20.42969
		v311.04053c0,34.59863-12.37695,64.91943-36.78662,90.12012l-0.08154,0.08252
		C-1681.21582,2222.69629-1711.40527,2235.2168-1746,2235.2168z M-852.78955,1977.83447l-77.74609,86.91406v166.45459h-20.4292
		v-434.44189h20.4292v237.50439l218.98242-243.3584l14.49023,13.521l-141.4707,157.66699l142.35791,263.5791l-18.38818,8.74756
		L-852.78955,1977.83447z M-2188.92236,2046.05566c-0.14941,0.02246-0.2998,0.04492-0.45068,0.06738
		c-3.04004,0.45557-6.18164,0.92627-9.46631,0.95215c-5.12891,0.50244-9.66943,0.50244-13.68408,0.50244h-100.7085v183.62549
		h-19.93359v-439.45898h120.64209c33.59521,0,61.87939,7.93408,84.06738,23.58203
		c32.15186,22.01709,48.48584,57.13525,48.48584,104.33496c0,66.34961-29.72705,107.58984-88.37793,122.68018l89.32129,184.08008
		l-17.99609,7.95947L-2188.92236,2046.05566z M-2212.52344,2027.04541c29.89258,0,53.7085-6.41016,72.80908-19.59619
		c26.45898-18.1499,39.31445-46.8623,39.31445-87.78809c0-40.11084-12.87354-68.67188-39.35547-87.31494
		c-19.27588-13.30762-43.77246-20.06934-72.76807-20.06934h-100.7085v214.76855H-2212.52344z M-1177.01318,2231.20313
		l-214.58643-389.49902v389.49902h-19.93359v-434.44189h18.6792l214.08643,389.45752v-389.45752h20.42969v434.44189H-1177.01318z
		 M-2770.90332,2231.20313v-439.45898h201.57959v20.53271h-181.1499v167.60791h181.1499v20.53223h-181.1499v230.78613H-2770.90332z"
		/>
	<path style="fill:#221F20;" d="M-2212.52344,1797.24438c32.25952,0,59.55615,7.52551,80.89722,22.57666
		c30.77051,21.0719,46.15625,54.6864,46.15625,99.83997c0,66.22559-30.2749,105.8606-90.82349,118.90466l89.83057,185.13037
		l-7.94067,3.51221l-91.31958-187.13721c-4.46655,0.50159-8.93359,1.505-13.40015,1.505
		c-4.96313,0.50159-9.42993,0.50159-13.40015,0.50159h-106.2085v183.62524h-8.93335v-428.4585H-2212.52344 M-2318.73193,2032.54541
		h106.2085c30.27417,0,55.58594-6.52222,75.93433-20.56995c27.79272-19.06506,41.68896-49.66919,41.68896-92.31445
		c0-41.64172-13.89624-72.24585-41.68896-91.8125c-20.34839-14.04773-45.66016-21.07166-75.93433-21.07166h-106.2085V2032.54541
		 M-2574.82349,1797.24438v9.53247h-181.15039v178.60803h181.15039v9.53223h-181.15039v230.78577h-9.42969v-428.4585H-2574.82349
		 M-711.21082,1798.74939l6.4519,6.02051l-140.45331,156.53284l141.44611,261.8916l-8.43726,4.01392l-139.46082-258.88147
		l-84.37109,94.32117v163.05493h-9.42969v-423.44165h9.42969v246.33862L-711.21082,1798.74939 M-1163.83777,1802.26123v423.44165
		h-9.92615l-223.33582-405.37988v405.37988h-8.93335v-423.44165h9.92615l222.83936,405.38037v-405.38037H-1163.83777
		 M-1624.90222,1802.26123v305.54028c0,33.6145-11.91113,62.21191-35.23718,86.29395
		c-23.82251,23.58032-52.11169,35.62109-85.86035,35.62109c-33.74854,0-62.03772-12.04077-85.86023-35.62109
		c-23.32617-23.58032-35.23755-52.67944-35.23755-86.29395v-305.54028h9.43005v305.54028
		c0,31.60791,10.91833,58.198,32.75586,80.27344c21.34082,22.0752,48.14111,33.11279,78.91187,33.11279
		c31.26697,0,57.57117-11.0376,78.91199-33.11279c21.83716-22.07544,32.75586-48.66553,32.75586-80.27344v-305.54028H-1624.90222
		 M-711.89557,1783.06519l-7.49225,8.32642l-205.64746,228.53894v-217.66931v-11h-11h-9.42969h-11v11v423.44165v11h11h9.42969h11
		v-11v-158.85303l71.12024-79.50757l132.02753,245.08301l4.96198,9.21069l9.44775-4.49438l8.43719-4.01392l10.45502-4.97388
		l-5.50195-10.18677l-137.76727-255.08008l135.28314-150.77063l7.20441-8.02917l-7.8869-7.35974l-6.45197-6.02063
		L-711.89557,1783.06519L-711.89557,1783.06519z M-2212.52344,1786.24438h-115.14185h-11v11v428.4585v11h11h8.93335h11v-11
		v-172.62524h95.2085c4.08008,0,8.68726,0,13.98047-0.50586c2.23486-0.03149,4.39502-0.24097,6.43433-0.50342l87.81909,179.96411
		l4.64648,9.521l9.68896-4.28516l7.94067-3.51221l10.42188-4.60986l-4.97485-10.2522l-83.95874-173.02917
		c26.2439-7.90076,46.75586-21.36414,61.09058-40.13135c16.56543-21.68665,24.9646-50.64587,24.9646-86.07251
		c0-49.09937-17.11987-85.73071-50.88916-108.88037C-2148.48096,1794.49927-2177.8064,1786.24438-2212.52344,1786.24438
		L-2212.52344,1786.24438z M-2307.73193,1817.77686h95.2085c27.83936,0,51.27295,6.42603,69.64844,19.09875
		c24.88086,17.53931,36.97485,44.61902,36.97485,82.7854c0,38.97644-12.07373,66.20557-36.91162,83.24365
		c-18.17798,12.54944-40.97217,18.64075-69.71167,18.64075h-95.2085V1817.77686L-2307.73193,1817.77686z M-2563.82349,1786.24438
		h-11h-190.58008h-11v11v428.4585v11h11h9.42969h11v-11v-219.78577h170.15039h11v-11v-9.53223v-11h-11h-170.15039v-156.60803
		h170.15039h11v-11v-9.53247V1786.24438L-2563.82349,1786.24438z M-1152.83777,1791.26123h-11h-9.42981h-11v11v362.53491
		l-202.19995-367.83374l-3.13391-5.70117h-6.50549h-9.92615h-11v11v423.44165v11h11h8.93335h11v-11v-362.61755l202.70105,367.92566
		l3.13611,5.69189h6.49866h9.92615h11v-11v-423.44165V1791.26123L-1152.83777,1791.26123z M-1613.90222,1791.26123h-11h-9.42969h-11
		v11v305.54028c0,28.69165-9.67444,52.41895-29.57617,72.5376l-0.04443,0.04492l-0.04382,0.04541
		c-19.35815,20.02441-42.58337,29.7583-71.00342,29.7583c-28.02527,0-51.91418-10.01221-71.0033-29.7583l-0.04395-0.04565
		l-0.04443-0.04468c-19.90161-20.11841-29.57605-43.8457-29.57605-72.5376v-305.54028v-11h-11h-9.43005h-11v11v305.54028
		c0,36.62402,12.92554,68.26025,38.41724,94.02979l0.04089,0.04102l0.04102,0.04102
		c12.93262,12.80078,27.30139,22.55322,42.70789,28.98608c15.60156,6.51416,32.72351,9.81714,50.89075,9.81714
		s35.28918-3.30298,50.89087-9.81714c15.40637-6.43286,29.77527-16.1853,42.70776-28.98608l0.08228-0.08154l0.08057-0.08325
		c25.43799-26.26196,38.33606-57.87061,38.33606-93.94702v-305.54028V1791.26123L-1613.90222,1791.26123z"/>
</g>
<rect x="-5168.81055" y="-280.27026" style="fill:#FFFFFF;stroke:#221F20;stroke-width:10;stroke-linecap:square;stroke-miterlimit:10;" width="2977.81055" height="1254.27026"/>
<g>
	<path style="fill:#221F20;" d="M-3691.32056,568.6012c-34.59424,0-64.7832-12.52051-89.729-37.2124
		c-24.47754-24.74417-36.86816-55.07864-36.86816-90.20267V130.1456h20.42969v311.04053
		c0,30.21289,10.19434,55.20459,31.16602,76.40482c20.20947,20.9043,45.42871,31.48096,75.00146,31.48096
		c29.57324,0,54.79248-10.57666,74.95801-31.43555c21.01563-21.24515,31.20996-46.23734,31.20996-76.45023V130.1456h20.42969
		v311.04053c0,34.59863-12.37695,64.91943-36.78662,90.12015l-0.08154,0.08252
		C-3626.53638,556.08069-3656.72583,568.6012-3691.32056,568.6012z M-2798.11011,311.21884l-77.74609,86.91406v166.45462h-20.4292
		V130.1456h20.4292v237.50439l218.98242-243.3584l14.49023,13.521l-141.4707,157.66699l142.35791,263.57913l-18.38818,8.74756
		L-2798.11011,311.21884z M-4134.24268,379.44003c-0.14941,0.02246-0.2998,0.04492-0.45068,0.06738
		c-3.04004,0.45557-6.18164,0.92627-9.46631,0.95215c-5.12891,0.50244-9.66943,0.50244-13.68408,0.50244h-100.7085v183.62552
		h-19.93359V125.12851h120.64209c33.59521,0,61.87915,7.93408,84.06714,23.58203
		c32.15186,22.01709,48.48584,57.13525,48.48584,104.33496c0,66.34961-29.72705,107.58984-88.37769,122.68018l89.32104,184.08011
		l-17.99609,7.95947L-4134.24268,379.44003z M-4157.84375,360.42978c29.89258,0,53.7085-6.41016,72.80884-19.59619
		c26.45898-18.1499,39.31445-46.8623,39.31445-87.78809c0-40.11084-12.87354-68.67188-39.35547-87.31494
		c-19.27563-13.30762-43.77222-20.06934-72.76782-20.06934h-100.7085v214.76855H-4157.84375z M-3122.33374,564.58752
		l-214.58643-389.49905v389.49905h-19.93359V130.1456h18.6792l214.08643,389.45755V130.1456h20.42969v434.44193H-3122.33374z
		 M-4716.22363,564.58752V125.12851h201.57959v20.53271h-181.1499v167.60791h181.1499v20.53223h-181.1499v230.78616H-4716.22363z"/>
	<path style="fill:#221F20;" d="M-4157.84375,130.62869c32.25928,0,59.55615,7.52556,80.89722,22.57668
		c30.77051,21.07195,46.15601,54.68639,46.15601,99.84c0,66.22554-30.27466,105.86055-90.82324,118.90471l89.83057,185.13031
		l-7.94092,3.51221l-91.31934-187.13724c-4.4668,0.50168-8.93359,1.505-13.40039,1.505
		c-4.96289,0.50168-9.42969,0.50168-13.3999,0.50168h-106.2085v183.62531h-8.93359V130.62869H-4157.84375 M-4264.05225,365.92981
		h106.2085c30.27393,0,55.58594-6.52222,75.93408-20.57001c27.79272-19.065,41.68921-49.66916,41.68921-92.31444
		c0-41.64166-13.89648-72.24583-41.68921-91.8125c-20.34814-14.04778-45.66016-21.07167-75.93408-21.07167h-106.2085V365.92981
		 M-4520.14404,130.62869v9.5325h-181.15039v178.60806h181.15039v9.53223h-181.15039v230.78586h-9.42969V130.62869H-4520.14404
		 M-2656.53125,132.1337l6.4519,6.02055l-140.45337,156.53279l141.44604,261.89169l-8.43701,4.01385l-139.46094-258.88141
		l-84.37109,94.32114v163.05502h-9.42969V135.64565h9.42969v246.33861L-2656.53125,132.1337 M-3109.1582,135.64565v423.44171
		h-9.92603l-223.33594-405.38004v405.38004h-8.93335V135.64565h9.92603l222.8396,405.38031V135.64565H-3109.1582
		 M-3570.22266,135.64565v305.54028c0,33.61444-11.91113,62.21194-35.2373,86.29395
		c-23.82251,23.58026-52.11157,35.62109-85.86035,35.62109c-33.74854,0-62.0376-12.04083-85.86011-35.62109
		c-23.32617-23.58032-35.23755-52.6795-35.23755-86.29395V135.64565h9.42993v305.54028
		c0,31.60779,10.91846,58.19806,32.75586,80.27338c21.34082,22.07526,48.14111,33.11279,78.91187,33.11279
		c31.26709,0,57.57129-11.03754,78.91211-33.11279c21.83716-22.07532,32.75586-48.66559,32.75586-80.27338V135.64565H-3570.22266
		 M-2657.21606,116.44953l-7.49219,8.32639l-205.64746,228.53897V135.64565v-11.00001h-11h-9.42969h-11v11.00001v423.44171v11h11
		h9.42969h11v-11V400.23416l71.12036-79.50757l132.02734,245.08298l4.96191,9.21082l9.44775-4.49445l8.43726-4.01385
		l10.45508-4.97394l-5.50195-10.18665l-137.76733-255.0802l135.2832-150.77066l7.20435-8.02916l-7.88696-7.35973l-6.4519-6.02056
		L-2657.21606,116.44953L-2657.21606,116.44953z M-4157.84375,119.62869h-115.14209h-11v11v428.45865v11h11h8.93359h11v-11
		V386.46204h95.2085c4.08008,0,8.68701-0.00003,13.98047-0.50583c2.23486-0.03165,4.39502-0.24112,6.43408-0.50357
		l87.81934,179.96417l4.64624,9.52106l9.68896-4.28528l7.94092-3.51221l10.42188-4.60968l-4.9751-10.25226l-83.95874-173.02917
		c26.24414-7.90085,46.7561-21.3642,61.09082-40.13141c16.56519-21.68668,24.96436-50.64584,24.96436-86.07249
		c0-49.09935-17.11987-85.73065-50.88892-108.88031C-4093.80151,127.88366-4123.12695,119.62869-4157.84375,119.62869
		L-4157.84375,119.62869z M-4253.05225,151.16119h95.2085c27.83936,0,51.27295,6.42603,69.64819,19.09883
		c24.88086,17.53929,36.9751,44.61893,36.9751,82.78534c0,38.97639-12.07397,66.20555-36.91162,83.24361
		c-18.17798,12.54944-40.97241,18.64084-69.71167,18.64084h-95.2085V151.16119L-4253.05225,151.16119z M-4509.14404,119.62869h-11
		h-190.58008h-11v11v428.45865v11h11h9.42969h11v-11V339.30148h170.15039h11v-11v-9.53223v-11h-11h-170.15039V151.16119h170.15039
		h11v-11v-9.5325V119.62869L-4509.14404,119.62869z M-3098.1582,124.64564h-11h-9.42969h-11v11.00001V498.1806l-202.19995-367.83386
		l-3.13403-5.70112h-6.50562h-9.92603h-11v11.00001v423.44171v11h11h8.93335h11v-11V196.46974l202.70117,367.92566l3.13599,5.69196
		h6.49878h9.92603h11v-11V135.64565V124.64564L-3098.1582,124.64564z M-3559.22266,124.64564h-11h-9.42969h-11v11.00001v305.54028
		c0,28.69168-9.67456,52.41888-29.57617,72.53754l-0.04443,0.04498l-0.04395,0.04529
		c-19.35815,20.02448-42.58325,29.75836-71.00342,29.75836c-28.02515,0-51.91406-10.01227-71.00317-29.75836l-0.04395-0.04559
		l-0.04443-0.04468c-19.90161-20.11838-29.57617-43.84558-29.57617-72.53754V135.64565v-11.00001h-11h-9.42993h-11v11.00001
		v305.54028c0,36.6239,12.92554,68.26028,38.41724,94.02979l0.04077,0.04108l0.04102,0.04083
		c12.93262,12.80084,27.30151,22.55334,42.70801,28.98615c15.60156,6.51416,32.72339,9.8172,50.89063,9.8172
		s35.28931-3.30304,50.89087-9.8172c15.40649-6.4328,29.77539-16.1853,42.70776-28.98615l0.08228-0.08136l0.08057-0.08337
		c25.43799-26.26196,38.33618-57.87057,38.33618-93.94696V135.64565V124.64564L-3559.22266,124.64564z"/>
</g>
<g>
	<g>
		<rect x="232.42841" y="586.26611" style="fill:#FFFFFF;" width="255.14319" height="107.46772"/>
		<path style="fill:#221F20;" d="M488,694.16229H232V585.83771h256V694.16229z M232.85681,693.30548h254.28638V586.69452H232.85681
			V693.30548z"/>
	</g>
	<g>
		<path style="fill:#221F20;" d="M358.84283,659.09552c-2.96408,0-5.55072-1.07281-7.68811-3.18842
			c-2.09729-2.12012-3.15894-4.71924-3.15894-7.7287v-26.65039h1.75046v26.65039c0,2.58868,0.87347,4.72998,2.67035,6.54645
			c1.73157,1.79114,3.8924,2.69733,6.42624,2.69733c2.53387,0,4.6947-0.90619,6.42252-2.69342
			c1.80066-1.82031,2.6741-3.96167,2.6741-6.55035v-26.65039h1.75046v26.65039c0,2.96448-1.06049,5.56238-3.15195,7.72162
			l-0.00699,0.00708C364.39365,658.02271,361.80695,659.09552,358.84283,659.09552z M435.37442,637.0426l-6.66141,7.44696v14.26202
			h-1.7504v-37.22357h1.7504v20.34967l18.76276-20.85126l1.24152,1.15851l-12.1214,13.50909l12.19742,22.58386l-1.5755,0.74951
			L435.37442,637.0426z M320.89261,642.88788c-0.01282,0.00195-0.0257,0.00385-0.03864,0.0058
			c-0.26047,0.039-0.52963,0.07935-0.8111,0.0816c-0.43942,0.04303-0.82849,0.04303-1.17245,0.04303h-8.62885v15.73328h-1.70795
			v-37.65344h10.33679c2.87848,0,5.30191,0.67975,7.203,2.02051c2.75482,1.88647,4.15436,4.89545,4.15436,8.93958
			c0,5.68494-2.54706,9.21844-7.57236,10.51141l7.65317,15.77228l-1.54193,0.68195L320.89261,642.88788z M318.87042,641.25909
			c2.56125,0,4.60181-0.54926,6.23837-1.67908c2.26706-1.55505,3.36853-4.0152,3.36853-7.52179
			c0-3.43677-1.10303-5.88391-3.37204-7.48126c-1.65158-1.1402-3.75049-1.7196-6.23486-1.7196h-8.62885v18.40173H318.87042z
			 M407.59445,658.75159l-18.38608-33.3728v33.3728h-1.70795v-37.22357h1.60046l18.34326,33.36926v-33.36926h1.75043v37.22357
			H407.59445z M271.02762,658.75159v-37.65344h17.27164v1.75922h-15.52121v14.3609h15.52121v1.75928h-15.52121v19.77405H271.02762z"
			/>
		<path style="fill:#221F20;" d="M318.87042,621.5694c2.76404,0,5.10287,0.64478,6.9314,1.93439
			c2.63647,1.80548,3.95474,4.68561,3.95474,8.55444c0,5.67432-2.59399,9.07025-7.78189,10.18793l7.69681,15.86224l-0.68039,0.3009
			l-7.82437-16.03418c-0.38272,0.04297-0.76544,0.12897-1.14816,0.12897c-0.42523,0.04297-0.80795,0.04297-1.14813,0.04297h-9.1001
			v15.73328h-0.76544V621.5694H318.87042 M309.77032,641.73035h9.1001c2.59393,0,4.7627-0.55884,6.50616-1.76251
			c2.38132-1.63348,3.57199-4.25568,3.57199-7.90961c0-3.56793-1.19067-6.19012-3.57199-7.86664
			c-1.74347-1.20361-3.91223-1.80542-6.50616-1.80542h-9.1001V641.73035 M287.82803,621.5694v0.81677h-15.52124v15.30334h15.52124
			v0.81677h-15.52124v19.77405h-0.80795V621.5694H287.82803 M447.5051,621.6983l0.5528,0.51587l-12.03424,13.41199
			l12.11932,22.43927l-0.72293,0.34387l-11.94919-22.18134l-7.22906,8.0816v13.97076h-0.80795v-36.28107h0.80795v21.10663
			L447.5051,621.6983 M408.72336,621.99927v36.28107h-0.85049l-19.13574-34.73352v34.73352h-0.76541v-36.28107h0.85046
			l19.09323,34.73352v-34.73352H408.72336 M369.21866,621.99927v26.17914c0,2.88013-1.02054,5.33038-3.01917,7.39374
			c-2.04114,2.02045-4.465,3.05206-7.35663,3.05206s-5.31549-1.03162-7.35663-3.05206
			c-1.99863-2.02039-3.01923-4.51361-3.01923-7.39374v-26.17914h0.80798v26.17914c0,2.70819,0.93552,4.98645,2.80658,6.87793
			c1.82852,1.89142,4.12479,2.83716,6.76129,2.83716c2.67899,0,4.93277-0.94574,6.76129-2.83716
			c1.87103-1.89148,2.80655-4.16974,2.80655-6.87793v-26.17914H369.21866 M447.44641,620.35449l-0.64194,0.71344l-17.62018,19.58154
			v-18.65021v-0.9425h-0.9425h-0.80795h-0.94247v0.9425v36.28107v0.9425h0.94247h0.80795h0.9425v-0.9425v-13.61078l6.09369-6.81232
			l11.31232,20.99908l0.42514,0.78918l0.80951-0.38507l0.7229-0.34393l0.89581-0.42615l-0.47144-0.8728l-11.80408-21.85565
			l11.59125-12.91827l0.61728-0.68793l-0.67575-0.63062l-0.55283-0.51587L447.44641,620.35449L447.44641,620.35449z
			 M318.87042,620.62689h-9.86554h-0.94247v0.9425v36.71094v0.9425h0.94247h0.76544h0.9425v-0.9425v-14.79077h8.15759
			c0.34958,0,0.74435,0,1.19788-0.04333c0.1915-0.00275,0.37656-0.02069,0.5513-0.04315l7.52448,15.41962l0.3981,0.81573
			l0.83017-0.36713l0.68039-0.30096l0.89294-0.39496l-0.42627-0.87842l-7.1937-14.82538
			c2.24863-0.677,4.0061-1.83057,5.23434-3.43854c1.41934-1.85815,2.13898-4.33942,2.13898-7.37482
			c0-4.20691-1.46686-7.34552-4.36023-9.32904C324.35767,621.33417,321.84503,620.62689,318.87042,620.62689L318.87042,620.62689z
			 M310.71283,623.32861h8.15759c2.38531,0,4.39313,0.5506,5.96759,1.63641c2.13181,1.50281,3.16806,3.82306,3.16806,7.0932
			c0,3.33954-1.03452,5.67261-3.16266,7.13245c-1.55753,1.07526-3.51056,1.59717-5.97299,1.59717h-8.15759V623.32861
			L310.71283,623.32861z M288.77051,620.62689h-0.94247h-16.32919h-0.9425v0.9425v36.71094v0.9425h0.9425h0.80795h0.9425v-0.9425
			v-18.83154h14.57874h0.94247v-0.9425v-0.81677v-0.94244h-0.94247H273.2493v-13.41846h14.57874h0.94247v-0.94244v-0.81677
			V620.62689L288.77051,620.62689z M409.66583,621.05676h-0.94247h-0.80795h-0.9425v0.9425v31.0625l-17.3248-31.51654
			l-0.26852-0.48846h-0.5574h-0.85046h-0.9425v0.9425v36.28107v0.9425h0.9425h0.76541h0.9425v-0.9425v-31.06958l17.36771,31.52441
			l0.26871,0.48767h0.55682h0.85049h0.94247v-0.9425v-36.28107V621.05676L409.66583,621.05676z M370.16116,621.05676h-0.9425
			h-0.80795h-0.94247v0.9425v26.17914c0,2.45831-0.82892,4.49127-2.53415,6.21509l-0.00378,0.00385l-0.00375,0.00391
			c-1.65866,1.7157-3.64862,2.54974-6.08368,2.54974c-2.40125,0-4.44809-0.85791-6.08368-2.54974l-0.00375-0.00391l-0.00381-0.00385
			c-1.7052-1.72375-2.53412-3.75677-2.53412-6.21509v-26.17914v-0.9425h-0.9425h-0.80798h-0.94247v0.9425v26.17914
			c0,3.13794,1.10745,5.84863,3.29163,8.05658l0.00351,0.00354l0.00351,0.00348c1.10809,1.0968,2.33923,1.93243,3.65927,2.48358
			c1.33676,0.55817,2.8038,0.84113,4.36041,0.84113c1.55658,0,3.02362-0.28296,4.36038-0.84113
			c1.32004-0.55115,2.55121-1.38678,3.65927-2.48358l0.00705-0.00696l0.0069-0.00714c2.17957-2.25018,3.2847-4.95844,3.2847-8.0495
			v-26.17914V621.05676L370.16116,621.05676z"/>
	</g>
</g>
<rect x="1656" y="-96" style="fill:#F7941E;" width="720" height="1280"/>
<polygon style="fill:#D10741;" points="1241.43298,-942.59912 521.43304,-641.47412 521.43304,-1431.97412 1241.43298,-1431.97412 
	"/>
<rect x="-68.56702" y="-792.47412" transform="matrix(0.5 0.86603 -0.86603 0.5 -245.1532 -1159.33044)" style="fill:none;stroke:#CCCCCC;stroke-miterlimit:10;" width="1900" height="1"/>
<g>
	<g>
		<rect x="753.86139" y="-845.70801" style="fill:#FFFFFF;" width="255.14319" height="107.46772"/>
		<path style="fill:#221F20;" d="M1009.43304-737.81183h-256v-108.32458h256V-737.81183z M754.28986-738.66864h254.28638V-845.2796
			H754.28986V-738.66864z"/>
	</g>
	<g>
		<path style="fill:#221F20;" d="M880.27588-772.8786c-2.96411,0-5.55072-1.07281-7.68811-3.18842
			c-2.09729-2.12012-3.15894-4.71924-3.15894-7.7287v-26.65039h1.75043v26.65039c0,2.58868,0.87347,4.72998,2.67035,6.54645
			c1.73163,1.79114,3.89246,2.69733,6.42627,2.69733c2.53387,0,4.6947-0.90619,6.42249-2.69342
			c1.80066-1.82031,2.67413-3.96167,2.67413-6.55035v-26.65039h1.75043v26.65039c0,2.96448-1.06042,5.56238-3.15192,7.72162
			l-0.00696,0.00708C885.82666-773.95142,883.23999-772.8786,880.27588-772.8786z M956.80743-794.93152l-6.66138,7.44696v14.26202
			h-1.75043v-37.22357h1.75043v20.34967l18.76276-20.85126l1.24152,1.15851l-12.1214,13.50909l12.19745,22.58386l-1.57556,0.74951
			L956.80743-794.93152z M842.32562-789.08624c-0.01282,0.00195-0.0257,0.00385-0.03857,0.0058
			c-0.2605,0.039-0.52966,0.07935-0.8111,0.0816c-0.43945,0.04303-0.82849,0.04303-1.17249,0.04303h-8.62885v15.73328h-1.70795
			v-37.65344h10.33679c2.87848,0,5.30194,0.67975,7.203,2.02051c2.75482,1.88647,4.15436,4.89545,4.15436,8.93958
			c0,5.68494-2.54706,9.21844-7.57239,10.51141l7.6532,15.77228l-1.54193,0.68195L842.32562-789.08624z M840.30347-790.71503
			c2.56122,0,4.60181-0.54926,6.2384-1.67908c2.26703-1.55505,3.36847-4.0152,3.36847-7.52179
			c0-3.43677-1.10297-5.88391-3.37201-7.48126c-1.65155-1.1402-3.75049-1.7196-6.23486-1.7196h-8.62885v18.40173H840.30347z
			 M929.02753-773.22253l-18.38611-33.3728v33.3728h-1.70795v-37.22357h1.60046l18.34326,33.36926v-33.36926h1.75043v37.22357
			H929.02753z M792.46063-773.22253v-37.65344h17.27167v1.75922h-15.52118v14.3609h15.52118v1.75928h-15.52118v19.77405H792.46063z"
			/>
		<path style="fill:#221F20;" d="M840.30347-810.40472c2.76404,0,5.10284,0.64478,6.9314,1.93439
			c2.63647,1.80548,3.95471,4.68561,3.95471,8.55444c0,5.67432-2.59399,9.07025-7.78186,10.18793l7.69684,15.86224l-0.68042,0.3009
			l-7.8244-16.03418c-0.38269,0.04297-0.76544,0.12897-1.14813,0.12897c-0.42523,0.04297-0.80798,0.04297-1.14813,0.04297h-9.1001
			v15.73328h-0.76544v-36.71094H840.30347 M831.20337-790.24377h9.1001c2.59393,0,4.7627-0.55884,6.50616-1.76251
			c2.38129-1.63348,3.57196-4.25568,3.57196-7.90961c0-3.56793-1.19067-6.19012-3.57196-7.86664
			c-1.74347-1.20361-3.91223-1.80542-6.50616-1.80542h-9.1001V-790.24377 M809.26105-810.40472v0.81677h-15.52124v15.30334h15.52124
			v0.81677h-15.52124v19.77405h-0.80792v-36.71094H809.26105 M968.93811-810.27582l0.55286,0.51587l-12.0343,13.41199
			l12.11932,22.43927l-0.7229,0.34387l-11.94922-22.18134l-7.229,8.0816v13.97076h-0.80798v-36.28107h0.80798v21.10663
			L968.93811-810.27582 M930.15637-809.97485v36.28107h-0.85046l-19.13574-34.73352v34.73352h-0.76544v-36.28107h0.85052
			l19.0932,34.73352v-34.73352H930.15637 M890.65173-809.97485v26.17914c0,2.88013-1.02057,5.33038-3.01923,7.39374
			c-2.04114,2.02045-4.46497,3.05206-7.35663,3.05206c-2.8916,0-5.31549-1.03162-7.35663-3.05206
			c-1.9986-2.02039-3.01917-4.51361-3.01917-7.39374v-26.17914h0.80798v26.17914c0,2.70819,0.93549,4.98645,2.80652,6.87793
			c1.82855,1.89142,4.12482,2.83716,6.76129,2.83716c2.67902,0,4.9328-0.94574,6.76129-2.83716
			c1.87103-1.89148,2.80658-4.16974,2.80658-6.87793v-26.17914H890.65173 M968.87946-811.61963l-0.64197,0.71344l-17.62018,19.58154
			v-18.65021v-0.9425h-0.94244h-0.80798h-0.9425v0.9425v36.28107v0.9425h0.9425h0.80798h0.94244v-0.9425v-13.61078l6.09369-6.81232
			l11.31232,20.99908l0.42517,0.78918l0.80951-0.38507l0.7229-0.34393l0.89581-0.42615l-0.47144-0.8728l-11.80408-21.85565
			l11.59125-12.91827l0.61731-0.68793l-0.67578-0.63062l-0.5528-0.51587L968.87946-811.61963L968.87946-811.61963z
			 M840.30347-811.34723h-9.86554h-0.9425v0.9425v36.71094v0.9425h0.9425h0.76544h0.9425v-0.9425v-14.79077h8.15759
			c0.34961,0,0.74432,0,1.19788-0.04333c0.19147-0.00275,0.37653-0.02069,0.55127-0.04315l7.52448,15.41962l0.39813,0.81573
			l0.83014-0.36713l0.68042-0.30096l0.89294-0.39496l-0.42627-0.87842l-7.19373-14.82538
			c2.24866-0.677,4.00616-1.83057,5.23438-3.43854c1.41931-1.85815,2.13898-4.33942,2.13898-7.37482
			c0-4.20691-1.46686-7.34552-4.36023-9.32904C845.79071-810.63995,843.27808-811.34723,840.30347-811.34723L840.30347-811.34723z
			 M832.14587-808.64551h8.15759c2.38531,0,4.39313,0.5506,5.96759,1.63641c2.13184,1.50281,3.16803,3.82306,3.16803,7.0932
			c0,3.33954-1.03448,5.67261-3.1626,7.13245c-1.55756,1.07526-3.51056,1.59717-5.97302,1.59717h-8.15759V-808.64551
			L832.14587-808.64551z M810.20355-811.34723h-0.9425h-16.32916h-0.9425v0.9425v36.71094v0.9425h0.9425h0.80792h0.9425v-0.9425
			v-18.83154h14.57874h0.9425v-0.9425v-0.81677v-0.94244h-0.9425h-14.57874v-13.41846h14.57874h0.9425v-0.94244v-0.81677V-811.34723
			L810.20355-811.34723z M931.09888-810.91736h-0.9425h-0.80792h-0.9425v0.9425v31.0625l-17.32477-31.51654l-0.26855-0.48846
			h-0.55737h-0.85052h-0.9425v0.9425v36.28107v0.9425h0.9425h0.76544h0.9425v-0.9425v-31.06958l17.36774,31.52441l0.26868,0.48767
			h0.55682h0.85046h0.9425v-0.9425v-36.28107V-810.91736L931.09888-810.91736z M891.59418-810.91736h-0.94244h-0.80798h-0.9425
			v0.9425v26.17914c0,2.45831-0.82892,4.49127-2.53412,6.21509l-0.00378,0.00385l-0.00378,0.00391
			c-1.65863,1.7157-3.64862,2.54974-6.08368,2.54974c-2.40125,0-4.44806-0.85791-6.08368-2.54974l-0.00372-0.00391l-0.00385-0.00385
			c-1.7052-1.72375-2.53412-3.75677-2.53412-6.21509v-26.17914v-0.9425h-0.94244h-0.80798h-0.9425v0.9425v26.17914
			c0,3.13794,1.10748,5.84863,3.29163,8.05658l0.00348,0.00354l0.00354,0.00348c1.10809,1.0968,2.33923,1.93243,3.6593,2.48358
			c1.33673,0.55817,2.80377,0.84113,4.36035,0.84113c1.55664,0,3.02362-0.28296,4.36041-0.84113
			c1.32007-0.55115,2.55121-1.38678,3.6593-2.48358l0.00702-0.00696l0.0069-0.00714c2.17957-2.25018,3.28467-4.95844,3.28467-8.0495
			v-26.17914V-810.91736L891.59418-810.91736z"/>
	</g>
</g>
<rect x="394.93298" y="-792.47412" transform="matrix(0.92249 -0.38601 0.38601 0.92249 374.02609 278.85983)" style="fill:#00A651;" width="973" height="1"/>
</svg>
