<?xml version="1.0" encoding="utf-8"?>
<!-- Generator: Adobe Illustrator 17.1.0, SVG Export Plug-In . SVG Version: 6.00 Build 0)  -->
<!DOCTYPE svg PUBLIC "-//W3C//DTD SVG 1.1//EN" "http://www.w3.org/Graphics/SVG/1.1/DTD/svg11.dtd">
<svg version="1.1" id="Layer_1" xmlns="http://www.w3.org/2000/svg" xmlns:xlink="http://www.w3.org/1999/xlink" x="0px" y="0px"
	 viewBox="0 0 2987.81055 1264.27026" style="enable-background:new 0 0 2987.81055 1264.27026;" xml:space="preserve">
<rect x="-3475.18945" y="-1482.72974" style="fill:none;" width="128" height="128"/>
<rect x="-3747.18945" y="-1482.72974" style="fill:none;" width="128" height="128"/>
<rect x="-3475.18945" y="-1618.72974" style="fill:none;" width="128" height="128"/>
<g>
	<rect x="-3600.09473" y="-745.86487" style="fill:none;" width="2977.81055" height="1254.27026"/>
	<path style="fill:#221F20;stroke:#221F20;stroke-width:0.42286;stroke-miterlimit:10;" d="M-2951.42822-137.29298h-181.15039
		v230.7858h-9.42969v-428.45874h190.58008v9.5325h-181.15039v178.60803h181.15039V-137.29298z M-2462.07471-212.54913
		c0,66.22543-30.27441,105.86035-90.82324,118.90475l89.83057,185.13031l-7.94092,3.51199l-91.31958-187.13712
		c-4.46655,0.5017-8.93335,1.50511-13.40015,1.50511c-4.96289,0.5017-9.42969,0.5017-13.40015,0.5017h-106.2085v183.6252h-8.93335
		v-428.45874h115.14185c32.25977,0,59.5564,7.52554,80.89722,22.57678
		C-2477.46021-291.31738-2462.07471-257.70291-2462.07471-212.54913L-2462.07471-212.54913z M-2471.50464-212.54913
		c0-41.64186-13.89648-72.246-41.68921-91.81265c-20.34839-14.04782-45.65991-21.07166-75.93433-21.07166h-106.2085v225.76855
		h106.2085c30.27441,0,55.58594-6.5222,75.93433-20.57001C-2485.40112-139.29979-2471.50464-169.90399-2471.50464-212.54913
		L-2471.50464-212.54913z M-2001.50684-24.4086c0,33.61441-11.91125,62.2118-35.2373,86.29381
		c-23.82251,23.58023-52.11182,35.62123-85.86035,35.62123s-62.0376-12.041-85.86011-35.62123
		c-23.32617-23.5803-35.2373-52.67939-35.2373-86.29381v-305.54031h9.42969V-24.4086c0,31.6076,10.91846,58.19812,32.75586,80.2733
		c21.34082,22.07512,48.14111,33.11271,78.91187,33.11271c31.26709,0,57.57104-11.03759,78.91199-33.11271
		c21.83728-22.07519,32.75598-48.6657,32.75598-80.2733v-305.54031h9.42969V-24.4086z M-1540.44238,93.49281h-9.92615
		l-223.33569-405.38013V93.49281h-8.93347v-423.44171h9.92603l222.83948,405.38022v-405.38022h9.42981V93.49281z
		 M-1080.37061,90.98423l-8.43738,4.01369L-1228.2688-163.8835l-84.37134,94.32112V93.49281h-9.42957v-423.44171h9.42957v246.33871
		l224.82471-249.85062l6.45203,6.02042l-140.45349,156.533L-1080.37061,90.98423z"/>
</g>
<g>
	
		<rect x="-2736.18945" y="-2585.72974" style="fill:none;stroke:#221F20;stroke-width:10;stroke-linecap:square;stroke-miterlimit:10;" width="2977.81055" height="1254.27026"/>
	<path style="fill:#221F20;stroke:#221F20;stroke-width:10;stroke-linecap:square;stroke-miterlimit:10;" d="
		M-2087.52295-1977.15784h-181.15039v230.78577h-9.42969v-428.45874h190.58008v9.53247h-181.15039v178.60803h181.15039V-1977.15784z
		 M-1598.16956-2052.41406c0,66.22546-30.27441,105.86035-90.82324,118.90479l89.83057,185.13037l-7.94067,3.51196
		l-91.31958-187.13708c-4.4668,0.50171-8.93347,1.505-13.40015,1.505c-4.96301,0.50171-9.42969,0.50171-13.40015,0.50171h-106.20862
		v183.62524h-8.93335v-428.45874h115.14197c32.25952,0,59.55615,7.52563,80.89722,22.57666
		C-1613.55493-2131.18237-1598.16956-2097.56787-1598.16956-2052.41406L-1598.16956-2052.41406z M-1607.59937-2052.41406
		c0-41.64185-13.89636-72.24585-41.68933-91.8125c-20.34827-14.04785-45.65967-21.07178-75.93408-21.07178h-106.20862v225.76855
		h106.20862c30.27441,0,55.58582-6.52222,75.93408-20.56995C-1621.49573-1979.16467-1607.59937-2009.76892-1607.59937-2052.41406
		L-1607.59937-2052.41406z M-1137.60156-1864.27344c0,33.61438-11.91125,62.21179-35.2373,86.29382
		c-23.82251,23.5802-52.11182,35.62122-85.86035,35.62122c-33.74841,0-62.03772-12.04102-85.86023-35.62122
		c-23.32605-23.58032-35.2373-52.67944-35.2373-86.29382v-305.54028h9.42969v305.54028
		c0,31.60754,10.9187,58.19812,32.75598,80.27332c21.34094,22.07507,48.14124,33.11267,78.91187,33.11267
		c31.26709,0,57.57104-11.0376,78.91199-33.11267c21.83728-22.0752,32.75598-48.66577,32.75598-80.27332v-305.54028h9.42969
		V-1864.27344z M-676.53717-1746.37207h-9.92609l-223.33575-405.38013v405.38013h-8.93341v-423.44165h9.92596l222.83948,405.38013
		v-405.38013h9.42981V-1746.37207z M-216.46536-1748.88062l-8.4373,4.01367l-139.46083-258.88147l-84.37131,94.32117v163.05518
		h-9.42957v-423.44165h9.42957v246.33862l224.82468-249.85059l6.45193,6.02051l-140.45337,156.53296L-216.46536-1748.88062z"/>
</g>
<path style="fill:#FFFFFF;" d="M-3383.14941-1570.72974h-56.08008c-2.18701,0-3.95996-1.77295-3.95996-3.95996v-0.08008
	c0-2.18701,1.77295-3.95996,3.95996-3.95996h56.08008c2.18701,0,3.95996,1.77295,3.95996,3.95996v0.08008
	C-3379.18945-1572.50269-3380.9624-1570.72974-3383.14941-1570.72974z"/>
<path style="fill:#FFFFFF;" d="M-3383.14941-1550.72974h-56.08008c-2.18701,0-3.95996-1.77295-3.95996-3.95996v-0.08008
	c0-2.18701,1.77295-3.95996,3.95996-3.95996h56.08008c2.18701,0,3.95996,1.77295,3.95996,3.95996v0.08008
	C-3379.18945-1552.50269-3380.9624-1550.72974-3383.14941-1550.72974z"/>
<path style="fill:#FFFFFF;" d="M-3383.14941-1530.72974h-56.08008c-2.18701,0-3.95996-1.77295-3.95996-3.95996v-0.08008
	c0-2.18701,1.77295-3.95996,3.95996-3.95996h56.08008c2.18701,0,3.95996,1.77295,3.95996,3.95996v0.08008
	C-3379.18945-1532.50269-3380.9624-1530.72974-3383.14941-1530.72974z"/>
<rect x="-3747.18945" y="-1618.72974" style="fill:none;" width="128" height="128"/>
<path style="fill:#FFB400;" d="M-3654.15942-1571.72974h-58.06006c-1.64038,0-2.96997-1.32971-2.96997-2.96997v-0.06006
	c0-1.64026,1.32959-2.96997,2.96997-2.96997h58.06006c1.64014,0,2.96997,1.32971,2.96997,2.96997v0.06006
	C-3651.18945-1573.05945-3652.51929-1571.72974-3654.15942-1571.72974z"/>
<path style="fill:#FFB400;" d="M-3654.15942-1551.72974h-58.06006c-1.64038,0-2.96997-1.32971-2.96997-2.96997v-0.06006
	c0-1.64026,1.32959-2.96997,2.96997-2.96997h58.06006c1.64014,0,2.96997,1.32971,2.96997,2.96997v0.06006
	C-3651.18945-1553.05945-3652.51929-1551.72974-3654.15942-1551.72974z"/>
<path style="fill:#FFB400;" d="M-3654.15942-1531.72974h-58.06006c-1.64038,0-2.96997-1.32971-2.96997-2.96997v-0.06006
	c0-1.64026,1.32959-2.96997,2.96997-2.96997h58.06006c1.64014,0,2.96997,1.32971,2.96997,2.96997v0.06006
	C-3651.18945-1533.05945-3652.51929-1531.72974-3654.15942-1531.72974z"/>
<rect x="-3747.18945" y="-1754.72974" style="fill:none;" width="128" height="128"/>
<path style="fill:#FFB400;" d="M-3654.15942-1707.72974h-58.06006c-1.64038,0-2.96997-1.32971-2.96997-2.96997v-0.06006
	c0-1.64026,1.32959-2.96997,2.96997-2.96997h58.06006c1.64014,0,2.96997,1.32971,2.96997,2.96997v0.06006
	C-3651.18945-1709.05945-3652.51929-1707.72974-3654.15942-1707.72974z"/>
<path style="fill:#FFB400;" d="M-3654.15942-1687.72974h-58.06006c-1.64038,0-2.96997-1.32971-2.96997-2.96997v-0.06006
	c0-1.64026,1.32959-2.96997,2.96997-2.96997h58.06006c1.64014,0,2.96997,1.32971,2.96997,2.96997v0.06006
	C-3651.18945-1689.05945-3652.51929-1687.72974-3654.15942-1687.72974z"/>
<path style="fill:#FFB400;" d="M-3654.15942-1667.72974h-58.06006c-1.64038,0-2.96997-1.32971-2.96997-2.96997v-0.06006
	c0-1.64026,1.32959-2.96997,2.96997-2.96997h58.06006c1.64014,0,2.96997,1.32971,2.96997,2.96997v0.06006
	C-3651.18945-1669.05945-3652.51929-1667.72974-3654.15942-1667.72974z"/>
<rect x="-3747.18945" y="-1890.72974" style="fill:none;" width="128" height="128"/>
<path style="fill:#D15D14;" d="M-3654.15942-1843.72974h-58.06006c-1.64038,0-2.96997-1.32971-2.96997-2.96997v-0.06006
	c0-1.64026,1.32959-2.96997,2.96997-2.96997h58.06006c1.64014,0,2.96997,1.32971,2.96997,2.96997v0.06006
	C-3651.18945-1845.05945-3652.51929-1843.72974-3654.15942-1843.72974z"/>
<path style="fill:#D15D14;" d="M-3654.15942-1823.72974h-58.06006c-1.64038,0-2.96997-1.32971-2.96997-2.96997v-0.06006
	c0-1.64026,1.32959-2.96997,2.96997-2.96997h58.06006c1.64014,0,2.96997,1.32971,2.96997,2.96997v0.06006
	C-3651.18945-1825.05945-3652.51929-1823.72974-3654.15942-1823.72974z"/>
<path style="fill:#D15D14;" d="M-3654.15942-1803.72974h-58.06006c-1.64038,0-2.96997-1.32971-2.96997-2.96997v-0.06006
	c0-1.64026,1.32959-2.96997,2.96997-2.96997h58.06006c1.64014,0,2.96997,1.32971,2.96997,2.96997v0.06006
	C-3651.18945-1805.05945-3652.51929-1803.72974-3654.15942-1803.72974z"/>
<rect x="-3747.18945" y="-1482.72974" style="fill:none;" width="128" height="128"/>
<path d="M-3654.15942-1435.72974h-58.06006c-1.64038,0-2.96997-1.32971-2.96997-2.96997v-0.06006
	c0-1.64026,1.32959-2.96997,2.96997-2.96997h58.06006c1.64014,0,2.96997,1.32971,2.96997,2.96997v0.06006
	C-3651.18945-1437.05945-3652.51929-1435.72974-3654.15942-1435.72974z"/>
<path d="M-3654.15942-1415.72974h-58.06006c-1.64038,0-2.96997-1.32971-2.96997-2.96997v-0.06006
	c0-1.64026,1.32959-2.96997,2.96997-2.96997h58.06006c1.64014,0,2.96997,1.32971,2.96997,2.96997v0.06006
	C-3651.18945-1417.05945-3652.51929-1415.72974-3654.15942-1415.72974z"/>
<path d="M-3654.15942-1395.72974h-58.06006c-1.64038,0-2.96997-1.32971-2.96997-2.96997v-0.06006
	c0-1.64026,1.32959-2.96997,2.96997-2.96997h58.06006c1.64014,0,2.96997,1.32971,2.96997,2.96997v0.06006
	C-3651.18945-1397.05945-3652.51929-1395.72974-3654.15942-1395.72974z"/>
<rect x="-3611.18945" y="-1482.72974" style="fill:none;" width="128" height="128"/>
<rect x="-3611.18945" y="-1482.72974" style="fill:none;" width="128" height="128"/>
<path d="M-3524.54077-1437.13574l-41.05469,41.05469c-1.15991,1.15979-3.04028,1.15979-4.2002,0l-0.04248-0.04248
	c-1.15991-1.15979-1.15991-3.04028,0-4.2002l41.05469-41.05457c1.15991-1.15991,3.04028-1.15991,4.2002,0l0.04248,0.04236
	C-3523.3811-1440.17603-3523.3811-1438.29553-3524.54077-1437.13574z"/>
<path d="M-3528.78345-1396.08105l-41.05469-41.05469c-1.15991-1.15979-1.15991-3.04028,0-4.2002l0.04248-0.04236
	c1.15991-1.15991,3.04028-1.15991,4.2002,0l41.05469,41.05457c1.15967,1.15991,1.15967,3.04041,0,4.2002l-0.04248,0.04248
	C-3525.74316-1394.92126-3527.62354-1394.92126-3528.78345-1396.08105z"/>
<path d="M-3417.46533-1418.72974l18.40601-18.40601c1.15991-1.15979,1.15991-3.04028,0-4.2002l-0.04248-0.04236
	c-1.15991-1.15991-3.04028-1.15991-4.2002,0l-20.52734,20.52722c-1.17163,1.17163-1.17163,3.07104,0,4.24268l20.52734,20.52734
	c1.15991,1.15979,3.04028,1.15979,4.2002,0l0.04248-0.04248c1.15991-1.15979,1.15991-3.04041,0-4.2002L-3417.46533-1418.72974z"/>
<rect x="-3747.18945" y="-1346.72974" style="fill:none;" width="128" height="128"/>
<rect x="-3747.18945" y="-1346.72974" style="fill:none;" width="128" height="128"/>
<path d="M-3662.15942-1299.72974h-42.06006c-1.64038,0-2.96997-1.32971-2.96997-2.96997v-0.06006
	c0-1.64026,1.32959-2.96997,2.96997-2.96997h42.06006c1.64014,0,2.96997,1.32971,2.96997,2.96997v0.06006
	C-3659.18945-1301.05945-3660.51929-1299.72974-3662.15942-1299.72974z"/>
<path d="M-3662.15942-1279.72974h-42.06006c-1.64038,0-2.96997-1.32971-2.96997-2.96997v-0.06006
	c0-1.64026,1.32959-2.96997,2.96997-2.96997h42.06006c1.64014,0,2.96997,1.32971,2.96997,2.96997v0.06006
	C-3659.18945-1281.05945-3660.51929-1279.72974-3662.15942-1279.72974z"/>
<path d="M-3662.15942-1259.72974h-42.06006c-1.64038,0-2.96997-1.32971-2.96997-2.96997v-0.06006
	c0-1.64026,1.32959-2.96997,2.96997-2.96997h42.06006c1.64014,0,2.96997,1.32971,2.96997,2.96997v0.06006
	C-3659.18945-1261.05945-3660.51929-1259.72974-3662.15942-1259.72974z"/>
<rect x="-3883.18945" y="-1618.72974" style="fill:none;" width="128" height="128"/>
<path d="M-3791.14941-1570.72974h-56.08008c-2.18701,0-3.95996-1.77295-3.95996-3.95996v-0.08008
	c0-2.18701,1.77295-3.95996,3.95996-3.95996h56.08008c2.18701,0,3.95996,1.77295,3.95996,3.95996v0.08008
	C-3787.18945-1572.50269-3788.9624-1570.72974-3791.14941-1570.72974z"/>
<path d="M-3791.14941-1550.72974h-56.08008c-2.18701,0-3.95996-1.77295-3.95996-3.95996v-0.08008
	c0-2.18701,1.77295-3.95996,3.95996-3.95996h56.08008c2.18701,0,3.95996,1.77295,3.95996,3.95996v0.08008
	C-3787.18945-1552.50269-3788.9624-1550.72974-3791.14941-1550.72974z"/>
<path d="M-3791.14941-1530.72974h-56.08008c-2.18701,0-3.95996-1.77295-3.95996-3.95996v-0.08008
	c0-2.18701,1.77295-3.95996,3.95996-3.95996h56.08008c2.18701,0,3.95996,1.77295,3.95996,3.95996v0.08008
	C-3787.18945-1532.50269-3788.9624-1530.72974-3791.14941-1530.72974z"/>
<path style="fill:#231F20;" d="M-3517.16943-1572.72974h-60.04004c-1.09351,0-1.97998-0.88647-1.97998-1.97998v-0.04004
	c0-1.09351,0.88647-1.97998,1.97998-1.97998h60.04004c1.09351,0,1.97998,0.88647,1.97998,1.97998v0.04004
	C-3515.18945-1573.61621-3516.07593-1572.72974-3517.16943-1572.72974z"/>
<path style="fill:#231F20;" d="M-3517.16943-1532.72974h-60.04004c-1.09351,0-1.97998-0.88647-1.97998-1.97998v-0.04004
	c0-1.09351,0.88647-1.97998,1.97998-1.97998h60.04004c1.09351,0,1.97998,0.88647,1.97998,1.97998v0.04004
	C-3515.18945-1533.61621-3516.07593-1532.72974-3517.16943-1532.72974z"/>
<path style="fill:#231F20;" d="M-3517.16943-1552.72974h-60.04004c-1.09351,0-1.97998-0.88647-1.97998-1.97998v-0.04004
	c0-1.09351,0.88647-1.97998,1.97998-1.97998h60.04004c1.09351,0,1.97998,0.88647,1.97998,1.97998v0.04004
	C-3515.18945-1553.61621-3516.07593-1552.72974-3517.16943-1552.72974z"/>
<rect x="4.99996" y="4.9999" style="fill:#FFFFFF;stroke:#221F20;stroke-width:10;stroke-linecap:square;stroke-miterlimit:10;" width="2977.81055" height="1254.27026"/>
<g>
	<rect x="-103.28422" y="2679.22632" style="fill:#FFFFFF;" width="170" height="65.81738"/>
	<path style="fill:#221F20;" d="M61.71579,2684.22681v55.81689h-160v-55.81689H61.71579 M71.71578,2674.22681h-180v75.81689h180
		V2674.22681L71.71578,2674.22681z"/>
</g>
<g>
	<path style="fill:#221F20;" d="M1482.49023,853.87085c-34.59473,0-64.78418-12.52051-89.72949-37.21191
		c-24.47754-24.74414-36.86816-55.0791-36.86816-90.20313V415.4158h20.42969v311.04001
		c0,30.21289,10.19434,55.20508,31.16602,76.40527c20.20996,20.90527,45.42871,31.48145,75.00195,31.48145
		s54.79199-10.57617,74.95801-31.43555c21.01563-21.24609,31.20996-46.23828,31.20996-76.45117V415.4158h20.42969v311.04001
		c0,34.59863-12.37695,64.91992-36.78711,90.12012l-0.08105,0.08301
		C1547.27344,841.35034,1517.08496,853.87085,1482.49023,853.87085z M2375.70117,596.48901l-77.74609,86.91406v166.4541h-20.42969
		V415.4158h20.42969v237.50388l218.98242-243.35739l14.49023,13.52051l-141.4707,157.66696l142.35742,263.58008l-18.38867,8.74707
		L2375.70117,596.48901z M1039.56738,664.71069c-0.14941,0.02246-0.2998,0.04492-0.45117,0.06738
		c-3.04004,0.45508-6.18164,0.92578-9.46582,0.95215c-5.12793,0.50195-9.66901,0.50195-13.68365,0.50195H915.25775v183.625
		h-19.93262V410.3992h120.6416c33.59576,0,61.87994,7.93359,84.06744,23.58105
		c32.15137,22.01758,48.48535,57.13574,48.48535,104.33591c0,66.34961-29.72656,107.58984-88.37793,122.67969l89.32129,184.0791
		l-17.99512,7.96094L1039.56738,664.71069z M1015.96674,645.69995c29.89362,0,53.70905-6.41016,72.80865-19.59668
		c26.45898-18.14941,39.31445-46.86133,39.31445-87.78711c0-40.11032-12.87305-68.67184-39.35547-87.31638
		c-19.27441-13.30664-43.77148-20.06836-72.76764-20.06836H915.25775v214.76852H1015.96674z M2051.47656,849.85718
		l-214.58594-389.49899v389.49899h-19.93359V415.4158h18.67871l214.08691,389.457v-389.457h20.42969v434.44138H2051.47656z
		 M457.58688,849.85718V410.3992h201.57907v20.53223H478.01657v167.60837h181.14938v20.53223H478.01657v230.78516H457.58688z"/>
	<path style="fill:#221F20;" d="M1015.96674,415.89896c32.25934,0,59.55621,7.52551,80.89703,22.57666
		c30.771,21.07153,46.15625,54.68628,46.15625,99.84006c0,66.22534-30.27441,105.86035-90.82324,118.90479l89.83057,185.13037
		l-7.94092,3.51196l-91.31934-187.13721c-4.4668,0.50171-8.93359,1.50537-13.40039,1.50537
		c-4.96289,0.50146-9.42975,0.50146-13.39996,0.50146h-106.2085v183.62524h-8.93359V415.89896H1015.96674 M909.75824,651.19995
		h106.2085c30.27448,0,55.586-6.52222,75.93414-20.56982c27.79297-19.06519,41.68945-49.66919,41.68945-92.31445
		c0-41.64182-13.89648-72.24582-41.68945-91.81247c-20.34814-14.04785-45.65967-21.07178-75.93414-21.07178h-106.2085V651.19995
		 M653.66644,415.89896v9.53247H472.51633v178.60764h181.15012v9.53271H472.51633v230.78589h-9.42969V415.89896H653.66644
		 M2517.2793,417.40421l6.45215,6.02026l-140.45361,156.53305l141.44629,261.8916l-8.4375,4.01367l-139.46045-258.88135
		l-84.37158,94.32104v163.05518h-9.42969V420.91592h9.42969v246.33871L2517.2793,417.40421 M2064.65234,420.91592v423.44174
		h-9.92627l-223.33545-405.3801v405.3801h-8.93359V420.91592h9.92578l222.83984,405.38022V420.91592H2064.65234
		 M1603.58789,420.91592V726.4563c0,33.61426-11.91113,62.21167-35.2373,86.2937
		c-23.82275,23.58032-52.11182,35.62134-85.86035,35.62134s-62.0376-12.04102-85.86035-35.62134
		c-23.32617-23.58032-35.2373-52.67944-35.2373-86.2937V420.91592h9.42969V726.4563c0,31.60742,10.91895,58.198,32.75635,80.27319
		c21.34082,22.0752,48.14111,33.11279,78.91162,33.11279c31.26709,0,57.57129-11.0376,78.91211-33.11279
		c21.8374-22.0752,32.75586-48.66577,32.75586-80.27319V420.91592H1603.58789 M2516.59424,401.72037l-7.49219,8.32605
		l-205.64746,228.53903V420.91592v-11h-11h-9.42969h-11v11v423.44174v11h11h9.42969h11v-11V685.50439l71.12061-79.50757
		l132.02734,245.08301l4.96143,9.21045l9.44775-4.49414l8.4375-4.01367l10.45557-4.97339l-5.50195-10.18701l-137.76758-255.08032
		l135.2832-150.77097l7.20508-8.0293l-7.88818-7.35974l-6.45215-6.02026L2516.59424,401.72037L2516.59424,401.72037z
		 M1015.96674,404.89896H900.82465h-11v11v428.45871v11h11h8.93359h11v-11V671.73242h95.2085c4.08008,0,8.68756,0,13.98053-0.50586
		c2.23486-0.03149,4.39551-0.24097,6.43457-0.50366l87.81885,179.96411l4.646,9.52075l9.68896-4.28491l7.94092-3.51196
		l10.42188-4.60938l-4.97461-10.25269l-83.95898-173.02905c26.24414-7.90088,46.75586-21.3645,61.09082-40.13159
		c16.56494-21.68677,24.96436-50.646,24.96436-86.07251c0-49.09396-17.11768-85.7236-50.87891-108.87326
		C1080.01807,413.15714,1050.68799,404.89896,1015.96674,404.89896L1015.96674,404.89896z M920.75824,436.43143h95.2085
		c27.83942,0,51.27301,6.42603,69.6485,19.09888c24.88086,17.53931,36.9751,44.6189,36.9751,82.78537
		c0,38.97632-12.07373,66.20557-36.91162,83.24341c-18.17822,12.54956-40.97217,18.64087-69.71198,18.64087h-95.2085V436.43143
		L920.75824,436.43143z M664.66644,404.89896h-11h-190.5798h-11v11v428.45871v11h11h9.42969h11v-11V624.57178h170.15012h11v-11
		v-9.53271v-11h-11H483.51633V436.43143h170.15012h11v-11v-9.53247V404.89896L664.66644,404.89896z M2075.65234,409.91592h-11
		h-9.42969h-11v11v362.535l-202.2002-367.83395l-3.13428-5.70105h-6.50537h-9.92578h-11v11v423.44174v11h11h8.93359h11v-11
		V481.74002l202.70068,367.92575l3.13623,5.69189h6.49854h9.92627h11v-11V420.91592V409.91592L2075.65234,409.91592z
		 M1614.58789,409.91592h-11h-9.42969h-11v11V726.4563c0,28.69141-9.67432,52.4187-29.57617,72.53735l-0.04443,0.04492
		l-0.04395,0.04541c-19.35791,20.02441-42.5835,29.7583-71.00342,29.7583c-28.0249,0-51.91406-10.01221-71.00293-29.7583
		l-0.04395-0.04565l-0.04443-0.04468c-19.90234-20.1189-29.57666-43.84595-29.57666-72.53735V420.91592v-11h-11h-9.42969h-11v11
		V726.4563c0,36.62427,12.92529,68.2605,38.41699,94.02954l0.04102,0.0415l0.04102,0.04053
		c12.93262,12.80103,27.30176,22.55322,42.70801,28.98608c15.60156,6.5144,32.72363,9.81738,50.89063,9.81738
		s35.28906-3.30298,50.89111-9.81738c15.40576-6.43286,29.7749-16.18506,42.70752-28.98608l0.08203-0.08154l0.08057-0.08325
		c25.43848-26.26196,38.33643-57.87036,38.33643-93.94678V420.91592V409.91592L1614.58789,409.91592z"/>
</g>
</svg>
