<?xml version="1.0" encoding="utf-8"?>
<!-- Generator: Adobe Illustrator 17.1.0, SVG Export Plug-In . SVG Version: 6.00 Build 0)  -->
<!DOCTYPE svg PUBLIC "-//W3C//DTD SVG 1.1//EN" "http://www.w3.org/Graphics/SVG/1.1/DTD/svg11.dtd">
<svg version="1.1" id="Layer_1" xmlns="http://www.w3.org/2000/svg" xmlns:xlink="http://www.w3.org/1999/xlink" x="0px" y="0px"
	 viewBox="0 0 128 128" style="enable-background:new 0 0 128 128;" xml:space="preserve">
<rect x="0" y="0" style="fill:none;" width="128" height="128"/>
<path style="fill:#232323;" d="M92.04,48H35.96C33.77295,48,32,46.22705,32,44.04v-0.08c0-2.18705,1.77295-3.96,3.96-3.96h56.08
	c2.18705,0,3.96,1.77295,3.96,3.96v0.08C96,46.22705,94.22705,48,92.04,48z"/>
<path style="fill:#232323;" d="M92.04,68H35.96C33.77295,68,32,66.22705,32,64.04v-0.08c0-2.18705,1.77295-3.96,3.96-3.96h56.08
	c2.18705,0,3.96,1.77295,3.96,3.96v0.08C96,66.22705,94.22705,68,92.04,68z"/>
<path style="fill:#232323;" d="M92.04,88H35.96C33.77295,88,32,86.22705,32,84.04v-0.08c0-2.18705,1.77295-3.96,3.96-3.96h56.08
	c2.18705,0,3.96,1.77295,3.96,3.96v0.08C96,86.22705,94.22705,88,92.04,88z"/>
</svg>
