<?xml version="1.0" encoding="utf-8"?>
<!-- Generator: Adobe Illustrator 17.1.0, SVG Export Plug-In . SVG Version: 6.00 Build 0)  -->
<!DOCTYPE svg PUBLIC "-//W3C//DTD SVG 1.1//EN" "http://www.w3.org/Graphics/SVG/1.1/DTD/svg11.dtd">
<svg version="1.1" id="Layer_1" xmlns="http://www.w3.org/2000/svg" xmlns:xlink="http://www.w3.org/1999/xlink" x="0px" y="0px"
	 viewBox="0 0 720 1280" style="enable-background:new 0 0 720 1280;" xml:space="preserve">
<polygon style="fill:#FFFFFF;" points="720,489.375 0,790.5 0,0 720,0 "/>
<rect x="-590" y="639.5" transform="matrix(0.5 0.86603 -0.86603 0.5 734.25629 8.23087)" style="fill:none;stroke:#CCCCCC;stroke-miterlimit:10;" width="1900" height="1"/>
<g>
	<g>
		<rect x="232.42841" y="586.26611" style="fill:#FFFFFF;" width="255.14319" height="107.46772"/>
		<path style="fill:#221F20;" d="M488,694.16229H232V585.83771h256V694.16229z M232.85681,693.30548h254.28638V586.69452H232.85681
			V693.30548z"/>
	</g>
	<g>
		<path style="fill:#221F20;" d="M358.84283,659.09552c-2.96408,0-5.55072-1.07281-7.68811-3.18842
			c-2.09729-2.12012-3.15894-4.71924-3.15894-7.7287v-26.65039h1.75046v26.65039c0,2.58868,0.87347,4.72998,2.67035,6.54645
			c1.73157,1.79114,3.8924,2.69733,6.42624,2.69733c2.53387,0,4.6947-0.90619,6.42252-2.69342
			c1.80066-1.82031,2.6741-3.96167,2.6741-6.55035v-26.65039h1.75046v26.65039c0,2.96448-1.06049,5.56238-3.15195,7.72162
			l-0.00699,0.00708C364.39365,658.02271,361.80695,659.09552,358.84283,659.09552z M435.37442,637.0426l-6.66141,7.44696v14.26202
			h-1.7504v-37.22357h1.7504v20.34967l18.76276-20.85126l1.24152,1.15851l-12.1214,13.50909l12.19742,22.58386l-1.5755,0.74951
			L435.37442,637.0426z M320.89261,642.88788c-0.01282,0.00195-0.0257,0.00385-0.03864,0.0058
			c-0.26047,0.039-0.52963,0.07935-0.8111,0.0816c-0.43942,0.04303-0.82849,0.04303-1.17245,0.04303h-8.62885v15.73328h-1.70795
			v-37.65344h10.33679c2.87848,0,5.30191,0.67975,7.203,2.02051c2.75482,1.88647,4.15436,4.89545,4.15436,8.93958
			c0,5.68494-2.54706,9.21844-7.57236,10.51141l7.65317,15.77228l-1.54193,0.68195L320.89261,642.88788z M318.87042,641.25909
			c2.56125,0,4.60181-0.54926,6.23837-1.67908c2.26706-1.55505,3.36853-4.0152,3.36853-7.52179
			c0-3.43677-1.10303-5.88391-3.37204-7.48126c-1.65158-1.1402-3.75049-1.7196-6.23486-1.7196h-8.62885v18.40173H318.87042z
			 M407.59445,658.75159l-18.38608-33.3728v33.3728h-1.70795v-37.22357h1.60046l18.34326,33.36926v-33.36926h1.75043v37.22357
			H407.59445z M271.02762,658.75159v-37.65344h17.27164v1.75922h-15.52121v14.3609h15.52121v1.75928h-15.52121v19.77405H271.02762z"
			/>
		<path style="fill:#221F20;" d="M318.87042,621.5694c2.76404,0,5.10287,0.64478,6.9314,1.93439
			c2.63647,1.80548,3.95474,4.68561,3.95474,8.55444c0,5.67432-2.59399,9.07025-7.78189,10.18793l7.69681,15.86224l-0.68039,0.3009
			l-7.82437-16.03418c-0.38272,0.04297-0.76544,0.12897-1.14816,0.12897c-0.42523,0.04297-0.80795,0.04297-1.14813,0.04297h-9.1001
			v15.73328h-0.76544V621.5694H318.87042 M309.77032,641.73035h9.1001c2.59393,0,4.7627-0.55884,6.50616-1.76251
			c2.38132-1.63348,3.57199-4.25568,3.57199-7.90961c0-3.56793-1.19067-6.19012-3.57199-7.86664
			c-1.74347-1.20361-3.91223-1.80542-6.50616-1.80542h-9.1001V641.73035 M287.82803,621.5694v0.81677h-15.52124v15.30334h15.52124
			v0.81677h-15.52124v19.77405h-0.80795V621.5694H287.82803 M447.5051,621.6983l0.5528,0.51587l-12.03424,13.41199
			l12.11932,22.43927l-0.72293,0.34387l-11.94919-22.18134l-7.22906,8.0816v13.97076h-0.80795v-36.28107h0.80795v21.10663
			L447.5051,621.6983 M408.72336,621.99927v36.28107h-0.85049l-19.13574-34.73352v34.73352h-0.76541v-36.28107h0.85046
			l19.09323,34.73352v-34.73352H408.72336 M369.21866,621.99927v26.17914c0,2.88013-1.02054,5.33038-3.01917,7.39374
			c-2.04114,2.02045-4.465,3.05206-7.35663,3.05206s-5.31549-1.03162-7.35663-3.05206
			c-1.99863-2.02039-3.01923-4.51361-3.01923-7.39374v-26.17914h0.80798v26.17914c0,2.70819,0.93552,4.98645,2.80658,6.87793
			c1.82852,1.89142,4.12479,2.83716,6.76129,2.83716c2.67899,0,4.93277-0.94574,6.76129-2.83716
			c1.87103-1.89148,2.80655-4.16974,2.80655-6.87793v-26.17914H369.21866 M447.44641,620.35449l-0.64194,0.71344l-17.62018,19.58154
			v-18.65021v-0.9425h-0.9425h-0.80795h-0.94247v0.9425v36.28107v0.9425h0.94247h0.80795h0.9425v-0.9425v-13.61078l6.09369-6.81232
			l11.31232,20.99908l0.42514,0.78918l0.80951-0.38507l0.7229-0.34393l0.89581-0.42615l-0.47144-0.8728l-11.80408-21.85565
			l11.59125-12.91827l0.61728-0.68793l-0.67575-0.63062l-0.55283-0.51587L447.44641,620.35449L447.44641,620.35449z
			 M318.87042,620.62689h-9.86554h-0.94247v0.9425v36.71094v0.9425h0.94247h0.76544h0.9425v-0.9425v-14.79077h8.15759
			c0.34958,0,0.74435,0,1.19788-0.04333c0.1915-0.00275,0.37656-0.02069,0.5513-0.04315l7.52448,15.41962l0.3981,0.81573
			l0.83017-0.36713l0.68039-0.30096l0.89294-0.39496l-0.42627-0.87842l-7.1937-14.82538
			c2.24863-0.677,4.0061-1.83057,5.23434-3.43854c1.41934-1.85815,2.13898-4.33942,2.13898-7.37482
			c0-4.20691-1.46686-7.34552-4.36023-9.32904C324.35767,621.33417,321.84503,620.62689,318.87042,620.62689L318.87042,620.62689z
			 M310.71283,623.32861h8.15759c2.38531,0,4.39313,0.5506,5.96759,1.63641c2.13181,1.50281,3.16806,3.82306,3.16806,7.0932
			c0,3.33954-1.03452,5.67261-3.16266,7.13245c-1.55753,1.07526-3.51056,1.59717-5.97299,1.59717h-8.15759V623.32861
			L310.71283,623.32861z M288.77051,620.62689h-0.94247h-16.32919h-0.9425v0.9425v36.71094v0.9425h0.9425h0.80795h0.9425v-0.9425
			v-18.83154h14.57874h0.94247v-0.9425v-0.81677v-0.94244h-0.94247H273.2493v-13.41846h14.57874h0.94247v-0.94244v-0.81677
			V620.62689L288.77051,620.62689z M409.66583,621.05676h-0.94247h-0.80795h-0.9425v0.9425v31.0625l-17.3248-31.51654
			l-0.26852-0.48846h-0.5574h-0.85046h-0.9425v0.9425v36.28107v0.9425h0.9425h0.76541h0.9425v-0.9425v-31.06958l17.36771,31.52441
			l0.26871,0.48767h0.55682h0.85049h0.94247v-0.9425v-36.28107V621.05676L409.66583,621.05676z M370.16116,621.05676h-0.9425
			h-0.80795h-0.94247v0.9425v26.17914c0,2.45831-0.82892,4.49127-2.53415,6.21509l-0.00378,0.00385l-0.00375,0.00391
			c-1.65866,1.7157-3.64862,2.54974-6.08368,2.54974c-2.40125,0-4.44809-0.85791-6.08368-2.54974l-0.00375-0.00391l-0.00381-0.00385
			c-1.7052-1.72375-2.53412-3.75677-2.53412-6.21509v-26.17914v-0.9425h-0.9425h-0.80798h-0.94247v0.9425v26.17914
			c0,3.13794,1.10745,5.84863,3.29163,8.05658l0.00351,0.00354l0.00351,0.00348c1.10809,1.0968,2.33923,1.93243,3.65927,2.48358
			c1.33676,0.55817,2.8038,0.84113,4.36041,0.84113c1.55658,0,3.02362-0.28296,4.36038-0.84113
			c1.32004-0.55115,2.55121-1.38678,3.65927-2.48358l0.00705-0.00696l0.0069-0.00714c2.17957-2.25018,3.2847-4.95844,3.2847-8.0495
			v-26.17914V621.05676L370.16116,621.05676z"/>
	</g>
</g>
<rect x="-68.56702" y="-792.47412" transform="matrix(0.5 0.86603 -0.86603 0.5 -245.1532 -1159.33044)" style="fill:none;stroke:#CCCCCC;stroke-miterlimit:10;" width="1900" height="1"/>
</svg>
